<svg width="26" height="25" viewBox="0 0 26 25" fill="none" xmlns="http://www.w3.org/2000/svg">
<g clip-path="url(#clip0_59_18)">
<path fill-rule="evenodd" clip-rule="evenodd" d="M0.5 5.85938C0.5 5.54857 0.623465 5.2505 0.843234 5.03073C1.063 4.81096 1.36107 4.6875 1.67188 4.6875H24.3281C24.6389 4.6875 24.937 4.81096 25.1568 5.03073C25.3765 5.2505 25.5 5.54857 25.5 5.85938C25.5 6.17018 25.3765 6.46825 25.1568 6.68802C24.937 6.90779 24.6389 7.03125 24.3281 7.03125H1.67188C1.36107 7.03125 1.063 6.90779 0.843234 6.68802C0.623465 6.46825 0.5 6.17018 0.5 5.85938ZM0.5 12.5C0.5 12.1892 0.623465 11.8911 0.843234 11.6714C1.063 11.4516 1.36107 11.3281 1.67188 11.3281H24.3281C24.6389 11.3281 24.937 11.4516 25.1568 11.6714C25.3765 11.8911 25.5 12.1892 25.5 12.5C25.5 12.8108 25.3765 13.1089 25.1568 13.3286C24.937 13.5484 24.6389 13.6719 24.3281 13.6719H1.67188C1.36107 13.6719 1.063 13.5484 0.843234 13.3286C0.623465 13.1089 0.5 12.8108 0.5 12.5ZM1.67188 17.9688C1.36107 17.9688 1.063 18.0922 0.843234 18.312C0.623465 18.5318 0.5 18.8298 0.5 19.1406C0.5 19.4514 0.623465 19.7495 0.843234 19.9693C1.063 20.189 1.36107 20.3125 1.67188 20.3125H24.3281C24.6389 20.3125 24.937 20.189 25.1568 19.9693C25.3765 19.7495 25.5 19.4514 25.5 19.1406C25.5 18.8298 25.3765 18.5318 25.1568 18.312C24.937 18.0922 24.6389 17.9688 24.3281 17.9688H1.67188Z" fill="black"/>
</g>
<defs>
<clipPath id="clip0_59_18">
<rect width="25" height="25" fill="white" transform="translate(0.5)"/>
</clipPath>
</defs>
</svg>
