<svg width="182" height="38" viewBox="0 0 182 38" fill="none" xmlns="http://www.w3.org/2000/svg">
<path d="M17.517 28.539C18.635 29.0263 19.194 29.6857 19.194 30.517C19.194 31.033 18.936 31.5347 18.42 32.022C17.904 32.5093 17.3163 32.8533 16.657 33.054C15.0803 33.226 13.9623 33.3263 13.303 33.355C9.46167 33.6703 6.75267 33.9713 5.176 34.258C4.918 34.43 4.37333 34.516 3.542 34.516C2.73933 34.516 2.02267 34.1433 1.392 33.398C0.79 32.6527 0.489 31.8787 0.489 31.076C0.489 30.7607 0.532 30.4597 0.618 30.173L6.122 8.415C6.43733 7.15366 6.767 6.32233 7.111 5.921C7.48367 5.491 8.143 5.276 9.089 5.276C9.863 5.276 10.5223 5.362 11.067 5.534C11.6403 5.706 11.9413 5.964 11.97 6.308C11.97 7.11066 10.121 14.908 6.423 29.7C8.94567 29.27 12.1563 28.926 16.055 28.668L17.517 28.539ZM25.1673 8.458C25.1673 7.56933 25.4396 6.781 25.9843 6.093C26.5576 5.405 27.346 5.061 28.3493 5.061C29.41 5.061 30.3273 5.39067 31.1013 6.05C31.904 6.70933 32.3053 7.45466 32.3053 8.286C32.3053 9.11733 31.904 9.834 31.1013 10.436C30.2986 11.038 29.367 11.339 28.3063 11.339C27.2743 11.339 26.486 11.081 25.9413 10.565C25.4253 10.0203 25.1673 9.318 25.1673 8.458ZM29.6823 16.069C28.163 22.261 27.002 26.9193 26.1993 30.044C26.0846 30.5027 26.0273 31.0043 26.0273 31.549L26.0703 32.753C26.0703 33.2403 25.9126 33.5843 25.5973 33.785C25.3106 33.9857 24.68 34.1003 23.7053 34.129C22.7593 34.129 22.0426 34.0287 21.5553 33.828C21.068 33.6273 20.8243 33.1973 20.8243 32.538C20.8243 32.2227 21.1826 30.5457 21.8993 27.507C22.6446 24.4683 23.648 20.5123 24.9093 15.639L23.9203 14.349C23.8343 14.263 23.7913 14.1627 23.7913 14.048C23.7913 13.7613 24.1066 13.532 24.7373 13.36C25.368 13.1593 26.2423 13.059 27.3603 13.059C28.335 13.059 28.9513 13.3457 29.2093 13.919C29.496 14.4637 29.6536 15.1803 29.6823 16.069ZM34.8151 14.349C34.7291 14.263 34.6861 14.1627 34.6861 14.048C34.6861 13.7613 35.0014 13.532 35.6321 13.36C36.2628 13.1593 37.1371 13.059 38.2551 13.059C39.2871 13.059 40.0468 13.3313 40.5341 13.876C41.0214 14.392 41.3081 15.0227 41.3941 15.768L40.6201 18.563C41.2221 17.7317 42.0678 16.9433 43.1571 16.198C44.2464 15.424 45.3501 14.8077 46.4681 14.349C47.5861 13.8903 48.5034 13.661 49.2201 13.661C50.7394 13.661 51.8431 13.9477 52.5311 14.521C53.2191 15.0657 53.5631 15.94 53.5631 17.144C51.8718 21.5587 50.7538 26.3173 50.2091 31.42L50.8111 33.527C50.4671 34.1863 49.9798 34.7023 49.3491 35.075C48.7471 35.4763 47.8584 35.677 46.6831 35.677C45.9951 35.677 45.4934 35.4477 45.1781 34.989C44.8628 34.5303 44.7051 33.957 44.7051 33.269C44.7051 31.3483 44.9774 29.2413 45.5221 26.948C46.0954 24.626 46.7548 22.261 47.5001 19.853C47.7868 18.9357 47.9301 18.4627 47.9301 18.434C47.9301 18.0327 47.7008 17.832 47.2421 17.832C46.6114 17.832 45.6511 18.2763 44.3611 19.165C43.0998 20.0537 41.7954 21.5587 40.4481 23.68C39.1008 25.7727 38.0114 28.5247 37.1801 31.936C37.1228 32.108 37.0511 32.4233 36.9651 32.882C36.8791 33.3407 36.6498 33.6703 36.2771 33.871C35.9044 34.043 35.3024 34.129 34.4711 34.129C33.5251 34.129 32.8228 34.0287 32.3641 33.828C31.9341 33.6273 31.7191 33.1973 31.7191 32.538C31.8051 32.1367 31.9341 31.6493 32.1061 31.076C33.7688 24.3967 35.0444 19.251 35.9331 15.639L34.8151 14.349ZM76.5278 15.51C76.0118 15.854 74.9224 16.5993 73.2598 17.746C71.5971 18.864 69.9631 20.0107 68.3578 21.186C66.7811 22.3327 65.9354 23.035 65.8208 23.293C66.1648 24.3537 67.3974 25.9733 69.5188 28.152C71.6401 30.302 73.5034 31.936 75.1088 33.054C75.0801 33.5987 74.7361 34.1863 74.0768 34.817C73.4174 35.4477 72.8441 35.763 72.3568 35.763C71.8981 35.763 71.5398 35.7057 71.2818 35.591C70.6511 35.3617 69.6764 34.6307 68.3578 33.398C67.0678 32.1653 65.7921 30.775 64.5308 29.227C63.2694 27.679 62.3808 26.303 61.8648 25.099C61.0334 28.4243 60.4314 30.7177 60.0588 31.979C59.7148 33.2403 59.4424 34.0573 59.2418 34.43C59.0411 34.8027 58.7831 34.989 58.4678 34.989L57.3928 35.032C55.5008 35.032 54.5118 34.2723 54.4258 32.753C54.9991 31.3483 55.4004 30.1873 55.6298 29.27C58.4678 18.7493 60.4888 10.823 61.6928 5.491C61.6928 5.11833 61.7931 4.545 61.9938 3.771C62.2231 2.96833 62.5098 2.25167 62.8538 1.621C63.2264 0.990332 63.6278 0.674998 64.0578 0.674998C64.7744 0.674998 65.5054 0.918665 66.2508 1.406C67.0248 1.89333 67.4261 2.481 67.4548 3.169C66.2221 7.899 64.7888 13.532 63.1548 20.068C63.8714 19.2367 64.9321 18.262 66.3368 17.144C67.7701 16.026 69.2178 15.037 70.6798 14.177C72.1418 13.2883 73.3028 12.7723 74.1628 12.629C74.3921 12.629 74.8078 12.7007 75.4098 12.844C76.0404 12.9873 76.4418 13.188 76.6138 13.446C76.6998 13.5607 76.7428 13.8617 76.7428 14.349C76.7428 14.9797 76.6711 15.3667 76.5278 15.51ZM87.4175 14.564C87.4175 15.4527 87.7329 16.1407 88.3635 16.628C89.0229 17.0867 90.0262 17.6027 91.3735 18.176L92.9215 18.821L94.2115 19.423C95.7595 20.111 96.9779 20.7417 97.8665 21.315C98.7839 21.8597 99.5579 22.6193 100.189 23.594C100.819 24.5687 101.135 25.8157 101.135 27.335C101.135 28.969 100.59 30.388 99.5005 31.592C98.4399 32.7673 96.9492 33.656 95.0285 34.258C93.1079 34.8887 90.8719 35.204 88.3205 35.204C86.4285 35.204 84.6512 34.903 82.9885 34.301C81.3545 33.7277 80.0502 32.9967 79.0755 32.108C78.1295 31.2193 77.6565 30.345 77.6565 29.485C77.6565 28.6537 78.0149 27.98 78.7315 27.464C79.4482 26.9193 80.4659 26.5467 81.7845 26.346C81.9279 27.1773 82.4152 27.9227 83.2465 28.582C84.0779 29.2413 85.0382 29.7717 86.1275 30.173C87.2455 30.5457 88.2202 30.732 89.0515 30.732C90.5709 30.732 91.9182 30.431 93.0935 29.829C94.2975 29.227 94.8995 28.3957 94.8995 27.335C94.8995 26.4463 94.4695 25.7153 93.6095 25.142C92.7782 24.54 91.5169 23.895 89.8255 23.207L87.5465 22.175C85.6832 21.2577 84.2069 20.2257 83.1175 19.079C82.0282 17.9323 81.4835 16.413 81.4835 14.521C81.4835 12.8297 81.9422 11.3247 82.8595 10.006C83.8055 8.65867 85.1672 7.61233 86.9445 6.867C88.7505 6.093 90.8862 5.706 93.3515 5.706C95.2435 5.706 96.9349 5.99267 98.4255 6.566C99.9162 7.13933 101.077 7.87033 101.909 8.759C102.74 9.64766 103.156 10.5363 103.156 11.425C103.156 12.2277 102.826 12.8727 102.167 13.36C101.536 13.8187 100.776 14.048 99.8875 14.048C99.5435 14.048 99.2999 13.9763 99.1565 13.833C99.0132 13.661 98.9129 13.489 98.8555 13.317C98.7982 13.1163 98.7409 12.973 98.6835 12.887C98.1389 11.9697 97.4079 11.296 96.4905 10.866C95.6019 10.4073 94.6272 10.178 93.5665 10.178C91.6745 10.178 90.1695 10.608 89.0515 11.468C87.9622 12.328 87.4175 13.36 87.4175 14.564ZM118.934 24.712C117.988 27.8653 116.741 30.3307 115.193 32.108C113.673 33.8853 112.111 34.774 110.506 34.774C107.553 34.774 106.077 31.936 106.077 26.26C106.077 24.196 106.148 22.4617 106.292 21.057C106.435 19.6523 106.679 18.1473 107.023 16.542C107.109 16.026 107.381 15.596 107.84 15.252C108.327 14.908 108.958 14.736 109.732 14.736C111.222 14.736 111.982 15.3953 112.011 16.714C112.011 16.8573 111.939 17.3303 111.796 18.133C111.509 19.767 111.265 21.229 111.065 22.519C110.893 23.809 110.807 25.1133 110.807 26.432C110.807 29.1267 111.222 30.474 112.054 30.474C112.828 30.474 113.602 29.614 114.376 27.894C115.178 26.1453 115.895 24.067 116.526 21.659C117.156 19.251 117.629 17.058 117.945 15.08C118.002 14.7073 118.274 14.3777 118.762 14.091C119.278 13.8043 119.722 13.661 120.095 13.661C120.926 13.661 121.614 13.8473 122.159 14.22C122.732 14.564 123.019 15.0657 123.019 15.725C123.019 15.897 122.933 16.456 122.761 17.402C121.987 21.5873 121.6 24.7837 121.6 26.991C121.6 28.023 121.743 28.8687 122.03 29.528C122.345 30.1587 122.746 30.474 123.234 30.474C124.18 30.474 125.04 29.485 125.814 27.507C126.616 25.529 127.261 23.1497 127.749 20.369C128.236 17.5883 128.508 15.08 128.566 12.844C128.594 12.4713 128.781 12.199 129.125 12.027C129.497 11.8263 129.942 11.726 130.458 11.726C131.088 11.726 131.705 11.8407 132.307 12.07C132.909 12.2707 133.224 12.5 133.253 12.758C132.192 27.4353 128.695 34.774 122.761 34.774C121.299 34.774 120.281 34.172 119.708 32.968C119.134 31.764 118.848 30.1443 118.848 28.109C118.848 27.335 118.934 26.2027 119.106 24.712H118.934ZM139.806 8.458C139.806 7.56933 140.078 6.781 140.623 6.093C141.196 5.405 141.985 5.061 142.988 5.061C144.049 5.061 144.966 5.39067 145.74 6.05C146.543 6.70933 146.944 7.45466 146.944 8.286C146.944 9.11733 146.543 9.834 145.74 10.436C144.937 11.038 144.006 11.339 142.945 11.339C141.913 11.339 141.125 11.081 140.58 10.565C140.064 10.0203 139.806 9.318 139.806 8.458ZM135.721 31.119C135.721 30.603 136.997 25.443 139.548 15.639L139.29 14.048C139.29 13.7327 139.476 13.489 139.849 13.317C140.222 13.145 140.938 13.059 141.999 13.059C142.83 13.059 143.432 13.2883 143.805 13.747C144.206 14.2057 144.407 14.7503 144.407 15.381C144.407 15.553 144.378 15.7823 144.321 16.069L140.494 31.549L140.752 33.14C140.752 33.4553 140.566 33.699 140.193 33.871C139.82 34.043 139.104 34.129 138.043 34.129C137.097 34.129 136.481 33.8567 136.194 33.312C135.907 32.7387 135.75 32.0077 135.721 31.119ZM153.582 35.462C153.352 35.9207 152.98 36.322 152.464 36.666C151.976 37.01 151.446 37.182 150.873 37.182C150.357 37.182 149.826 36.9813 149.282 36.58C148.766 36.2073 148.508 35.7057 148.508 35.075V34.817L152.163 19.896L148.164 20.24C147.275 20.24 146.831 19.7957 146.831 18.907C146.831 18.1903 147.089 17.4737 147.605 16.757C147.691 16.6423 149.568 16.3843 153.238 15.983L154.012 12.414C154.7 9.43267 155.789 7.18233 157.28 5.663C158.799 4.115 160.935 3.341 163.687 3.341C165.005 3.341 166.152 3.62766 167.127 4.201C168.101 4.77433 168.832 5.50533 169.32 6.394C169.807 7.28267 170.051 8.18567 170.051 9.103C170.051 9.81967 169.879 10.393 169.535 10.823C169.219 11.253 168.546 11.468 167.514 11.468C167.141 11.468 166.869 11.3533 166.697 11.124C166.553 10.8947 166.396 10.5077 166.224 9.963C166.023 9.24633 165.751 8.68733 165.407 8.286C165.063 7.88466 164.461 7.684 163.601 7.684C162.626 7.684 161.795 7.95633 161.107 8.501C160.447 9.017 160.017 9.64766 159.817 10.393L158.484 15.467L161.107 15.209C162.253 15.0943 162.87 15.037 162.956 15.037C164.045 15.037 164.59 15.6677 164.59 16.929C164.59 17.4163 164.375 17.8607 163.945 18.262C163.543 18.6347 163.099 18.864 162.612 18.95L157.495 19.466L153.582 35.462ZM171.255 29.27C171.255 29.9293 171.427 30.4597 171.771 30.861C172.115 31.2337 172.602 31.42 173.233 31.42C174.093 31.42 174.795 31.1763 175.34 30.689C175.913 30.173 176.515 29.4563 177.146 28.539C177.604 27.8797 177.977 27.4067 178.264 27.12C178.55 26.8333 178.88 26.69 179.253 26.69C179.998 26.69 180.528 26.7903 180.844 26.991C181.159 27.163 181.317 27.5357 181.317 28.109C181.317 28.367 181.288 28.6823 181.231 29.055C181.173 29.399 181.102 29.657 181.016 29.829C180.328 31.291 179.195 32.5523 177.619 33.613C176.071 34.6737 174.308 35.204 172.33 35.204C170.352 35.204 168.861 34.731 167.858 33.785C166.854 32.8103 166.353 31.4343 166.353 29.657C166.353 29.399 166.482 28.7253 166.74 27.636C166.998 26.5467 167.327 25.2423 167.729 23.723L168.933 18.821L166.31 19.036C165.966 19.036 165.708 18.907 165.536 18.649C165.364 18.391 165.278 18.0757 165.278 17.703C165.278 16.9863 165.536 16.2697 166.052 15.553C166.109 15.467 166.396 15.381 166.912 15.295C167.428 15.209 168.058 15.123 168.804 15.037L169.965 14.908L171.427 8.63C171.713 7.88466 172.143 7.31133 172.717 6.91C173.319 6.48 173.878 6.265 174.394 6.265C174.967 6.265 175.454 6.437 175.856 6.781C176.257 7.125 176.472 7.52633 176.501 7.985L174.953 14.435C176.071 14.2917 177.103 14.177 178.049 14.091C179.023 13.9763 179.783 13.919 180.328 13.919C181.417 13.919 181.962 14.5497 181.962 15.811C181.962 16.2983 181.747 16.7427 181.317 17.144C180.915 17.5167 180.471 17.746 179.984 17.832L173.964 18.434L171.255 29.27Z" fill="#006CEA"/>
</svg>
