<svg width="483" height="467" viewBox="0 0 483 467" fill="none" xmlns="http://www.w3.org/2000/svg">
<path d="M386.614 397.772C386.614 435.88 355.722 466.773 317.614 466.773L69.9534 466.773C8.48092 466.773 -22.3047 392.45 21.1629 348.982L268.824 101.322C312.291 57.854 386.614 88.6394 386.614 150.112L386.614 397.772Z" fill="#3FBCF8"/>
<path d="M96.6207 69.6209C96.6206 31.5132 127.513 0.620814 165.621 0.620802L413.281 0.620728C474.754 0.620709 505.539 74.9435 462.072 118.411L214.411 366.072C170.944 409.539 96.6207 378.754 96.6207 317.282L96.6207 69.6209Z" fill="#EB567B"/>
<path d="M386.614 193.869L214.411 366.072C170.944 409.539 96.6207 378.754 96.6207 317.282L96.6208 273.524L268.824 101.322C312.291 57.854 386.614 88.6394 386.614 150.112L386.614 193.869Z" fill="#455BB5"/>
</svg>
