<svg width="206" height="251" viewBox="0 0 206 251" fill="none" xmlns="http://www.w3.org/2000/svg">
<g clip-path="url(#clip0_49_60)">
<path d="M132.631 86.4465C131.904 79.1132 128.237 73.4162 122.722 69.3556C117.207 65.295 109.722 63.2647 100.268 63.2647C93.8435 63.2647 88.4193 64.1738 83.995 65.992C79.5708 67.7495 76.1768 70.2041 73.8132 73.3556C71.5102 76.5071 70.3587 80.0829 70.3587 84.0829C70.2375 87.4162 70.9344 90.3253 72.4496 92.8101C74.0253 95.295 76.1768 97.4465 78.9041 99.2647C81.6314 101.022 84.7829 102.568 88.3587 103.901C91.9344 105.174 95.7526 106.265 99.8132 107.174L116.54 111.174C124.662 112.992 132.116 115.416 138.904 118.447C145.692 121.477 151.571 125.204 156.54 129.628C161.51 134.053 165.359 139.265 168.086 145.265C170.874 151.265 172.298 158.143 172.359 165.901C172.298 177.295 169.389 187.174 163.631 195.537C157.934 203.84 149.692 210.295 138.904 214.901C128.177 219.447 115.237 221.719 100.086 221.719C85.0556 221.719 71.9647 219.416 60.8132 214.81C49.7223 210.204 41.0556 203.386 34.8132 194.356C28.6314 185.265 25.389 174.022 25.0859 160.628H63.1768C63.6011 166.871 65.389 172.083 68.5405 176.265C71.7526 180.386 76.0253 183.507 81.3587 185.628C86.7526 187.689 92.8435 188.719 99.6314 188.719C106.298 188.719 112.086 187.75 116.995 185.81C121.965 183.871 125.813 181.174 128.54 177.719C131.268 174.265 132.631 170.295 132.631 165.81C132.631 161.628 131.389 158.113 128.904 155.265C126.48 152.416 122.904 149.992 118.177 147.992C113.51 145.992 107.783 144.174 100.995 142.537L80.7223 137.447C65.0253 133.628 52.6314 127.659 43.5405 119.537C34.4496 111.416 29.9344 100.477 29.995 86.7192C29.9344 75.4465 32.9344 65.598 38.995 57.1738C45.1162 48.7495 53.5102 42.1738 64.1768 37.4465C74.8435 32.7192 86.9647 30.3556 100.54 30.3556C114.359 30.3556 126.419 32.7192 136.722 37.4465C147.086 42.1738 155.147 48.7495 160.904 57.1738C166.662 65.598 169.631 75.3556 169.813 86.4465H132.631Z" fill="black"/>
<rect x="46.1583" y="165.694" width="37" height="60.0747" transform="rotate(36.9026 46.1583 165.694)" fill="black"/>
<rect x="158.295" y="16.3556" width="37" height="53.0837" transform="rotate(36.9026 158.295 16.3556)" fill="black"/>
<line x1="132.368" y1="85.642" x2="70.3681" y2="174.642" stroke="black" stroke-width="8" stroke-dasharray="4 4"/>
<path d="M5.47789 245.335L9.27912 198.079L51.6761 234.691L5.47789 245.335Z" fill="black"/>
<path d="M190.508 3.37695L190.017 50.7828L145.166 17.221L190.508 3.37695Z" fill="black"/>
</g>
<defs>
<clipPath id="clip0_49_60">
<rect width="206" height="251" fill="white"/>
</clipPath>
</defs>
</svg>
